<?xml version="1.0" standalone="no"?>
<!DOCTYPE svg PUBLIC "-//W3C//DTD SVG 20010904//EN"
 "http://www.w3.org/TR/2001/REC-SVG-20010904/DTD/svg10.dtd">
<svg version="1.0" xmlns="http://www.w3.org/2000/svg"
 width="159.000000pt" height="148.000000pt" viewBox="0 0 159.000000 148.000000"
 preserveAspectRatio="xMidYMid meet">

<g transform="translate(0.000000,148.000000) scale(0.100000,-0.100000)"
fill="#000000" stroke="none">
<path d="M0 740 l0 -740 795 0 795 0 0 740 0 740 -795 0 -795 0 0 -740z m342
398 c17 17 26 15 33 -8 4 -12 15 -20 28 -20 62 -1 190 -75 332 -195 161 -135
268 -161 356 -88 19 17 51 67 81 129 38 80 60 113 99 148 74 66 133 62 115 -8
-4 -17 -29 -38 -78 -68 -71 -42 -74 -46 -125 -143 -28 -55 -65 -110 -81 -123
l-29 -22 18 -38 c11 -21 25 -84 32 -140 12 -87 17 -106 40 -130 15 -16 27 -35
27 -43 0 -7 7 -27 15 -42 20 -38 10 -117 -15 -117 -29 0 -53 37 -58 91 -4 47
-10 57 -66 113 -39 39 -77 92 -106 146 -54 102 -89 130 -163 130 -87 0 -159
27 -230 85 -57 47 -67 52 -83 41 -40 -28 -79 -28 -148 0 l-66 26 -18 -21 c-16
-20 -18 -21 -39 -6 -53 37 -8 87 79 89 76 2 79 45 3 46 -17 0 -43 11 -60 24
-26 21 -28 27 -17 43 6 10 15 23 18 30 3 6 20 27 37 46 24 26 35 32 45 24 9
-7 16 -7 24 1z"/>
</g>
</svg>
